{"title":"Carnies (2010) WEBRip","uid":8381291,"size":911517739,"categoryP":"video","categoryS":"movies","magnet":"?xt=urn:btih:51332690c40b38abfa28068f8cf1ff78c618be61&amp;dn=Carnies+%282010%29+WEBRip&amp;tr=udp%3A%2F%2Ftracker.openbittorrent.com%3A80&amp;tr=udp%3A%2F%2Fopen.demonii.com%3A1337&amp;tr=udp%3A%2F%2Ftracker.coppersurfer.tk%3A6969&amp;tr=udp%3A%2F%2Fexodus.desync.com%3A6969","seeders":1,"leechers":0,"uploader":"RadioResearch","files":3,"time":1366173960,"description":"*******************************************************************************\n                             Carnies (2010) WEBRip\n*******************************************************************************\n\n-------------------------------------------------------------------------------\n                              General Information\n-------------------------------------------------------------------------------\nType.................: Movie\n\n\n\nVideo Format.........: AVI\nVideo Bitrate........: 1491\nResolution...........: 640 x 360\nColor................: 8 bit\nFPS..................: 24.000\nSource...............: WEB 16:9\nOriginal Format......: NTSC\nGenre................: Horror Thriller\nIMDb Rating..........: 5.4\nMovie Information....: http://www.imdb.com/title/tt0799975/\n\n-------------------------------------------------------------------------------\n                               Post Information\n-------------------------------------------------------------------------------\nPosted by............: RadioResearch\nPosted on............: 4/17/2013\n\n-------------------------------------------------------------------------------\n                                 Release Notes\n-------------------------------------------------------------------------------\nSEEDBOX SUPPORTED!!\n\nSawdust in the Blood used to be a Carny compliment...not a description of a \ncrime scene. There are a thousand sideshows playing thousands of small towns in \n1936 when the Knuckles Brothers Show rolls into yet another town, ready to \ndelight and dazzle the town folk with amazing acts and puzzling oddities. As \nthey set up their tents they could not know that within days several of them \nwould be dead, ripped savagely apart by a seemingly inhuman force, their souls \nstolen from their limp and bloody bodies. Step up, step up, ladies and \ngentlemen, the show is about to begin... \n\nThe rip is a little bit sticky, but the source could not give more.  Was lucky \nto get this, I guess.\n\nStars Reggie Bannister of Phantasm fame.  KNown as the &quot;hardest working man in \nhorror,&quot; Reggie has been in literally a shitload of horror films, and always \ngives a great performance.  Also a veteran of the VietNam conflict, Reggie often \nstates that he feels a year had been stolen from him for his service over there.\n\nEnjoy\nRadioResearch\n\nGeneral\nComplete name                            : G:Carnies (2010) WEBRipCarnies.avi\nFormat                                   : AVI\nFormat/Info                              : Audio Video Interleave\nFile size                                : 869 MiB\nDuration                                 : 1h 21mn\nOverall bit rate                         : 1 491 Kbps\n\nVideo\nID                                       : 0\nFormat                                   : MPEG-4 Visual\nFormat profile                           : Simple@L3\nFormat settings, BVOP                    : No\nFormat settings, QPel                    : No\nFormat settings, GMC                     : No warppoints\nFormat settings, Matrix                  : Default (H.263)\nCodec ID                                 : XVID\nCodec ID/Hint                            : XviD\nDuration                                 : 1h 21mn\nBit rate                                 : 1 351 Kbps\nWidth                                    : 640 pixels\nHeight                                   : 360 pixels\nDisplay aspect ratio                     : 16:9\nFrame rate                               : 24.000 fps\nColor space                              : YUV\nChroma subsampling                       : 4:2:0\nBit depth                                : 8 bits\nScan type                                : Progressive\nCompression mode                         : Lossy\nBits/(Pixel*Frame)                       : 0.244\nStream size                              : 788 MiB (91%)\nWriting library                          : XviD 1.2.1 (UTC 2008-12-04)\n\nAudio\nID                                       : 1\nFormat                                   : MPEG Audio\nFormat version                           : Version 1\nFormat profile                           : Layer 3\nMode                                     : Joint stereo\nMode extension                           : MS Stereo\nCodec ID                                 : 55\nCodec ID/Hint                            : MP3\nDuration                                 : 1h 21mn\nBit rate mode                            : Constant\nBit rate                                 : 128 Kbps\nChannel(s)                               : 2 channels\nSampling rate                            : 44.1 KHz\nCompression mode                         : Lossy\nStream size                              : 74.6 MiB (9%)\nAlignment                                : Aligned on interleaves\nInterleave, duration                     : 26 ms (0.63 video frame)\nWriting library                          : LAME3.98.2\n\n\n\n-------------------------------------------------------------------------------\nGenerated with Cool NFO Creator - http://fly.to/coolbeans\n-------------------------------------------------------------------------------\n","torrent":{"xt":"urn:btih:51332690c40b38abfa28068f8cf1ff78c618be61","amp;dn":"Carnies+%282010%29+WEBRip","amp;tr":["udp%3A%2F%2Ftracker.openbittorrent.com%3A80","udp%3A%2F%2Fopen.demonii.com%3A1337","udp%3A%2F%2Ftracker.coppersurfer.tk%3A6969","udp%3A%2F%2Fexodus.desync.com%3A6969"],"infoHash":"51332690c40b38abfa28068f8cf1ff78c618be61","infoHashBuffer":{"type":"Buffer","data":[81,51,38,144,196,11,56,171,250,40,6,143,140,241,255,120,198,24,190,97]},"announce":[],"urlList":[]}}